<?xml version="1.0" encoding="utf-8"?>
<!-- Generator: Fusion 360, Shaper Origin Export Add-In, Version 1.6.10  -->
<svg xmlns="http://www.w3.org/2000/svg" xmlns:xlink="http://www.w3.org/1999/xlink" xmlns:shaper="http://www.shapertools.com/namespaces/shaper" shaper:fusionaddin="version:1.6.10" width="5.35cm" height="4.3cm" version="1.1" x="0cm" y="0cm" viewBox="0 0 5.35 4.3" enable-background="new 0 0 5.35 4.3" xml:space="preserve"><path d="M-1.275,1.55 A0.1,0.1 180 0,1 -1.175,1.45 L-1.075,1.45 A1.55125,1.55125 69.1845774 0,0 -1.075,-1.45 L-1.175,-1.45 A0.1,0.1 90 0,1 -1.275,-1.55 L-1.275,-1.5920411 -0.675,-1.5920411 A0.1,0.1 90 0,0 -0.575,-1.6920411 L-0.575,-1.8920411 A0.1,0.1 0 0,0 -0.675,-1.9920411 L-1.275,-1.9920411 -1.275,-2.05 A0.1,0.1 180 0,1 -1.175,-2.15 L1.925,-2.15 A2.15,2.15 270 0,1 1.925,2.15 L-1.175,2.15 A0.1,0.1 90 0,1 -1.275,2.05 L-1.275,1.9920411 -0.675,1.9920411 A0.1,0.1 90 0,0 -0.575,1.8920411 L-0.575,1.6920411 A0.1,0.1 0 0,0 -0.675,1.5920411 L-1.275,1.5920411 -1.275,1.55z" transform="matrix(1,0,0,-1,1.275,2.15)" fill="rgb(0,0,0)" stroke-linecap="round" stroke-linejoin="round" /><path d="M0.075,0 a1.85,1.85 0 1,1 3.7,0 a1.85,1.85 0 1,1 -3.7,0z" transform="matrix(1,0,0,-1,1.275,2.15)" fill="rgb(255,255,255)" stroke="rgb(0,0,0)" stroke-width="0.0010cm" stroke-linecap="round" stroke-linejoin="round" /></svg>