<?xml version="1.0" encoding="utf-8"?>
<!-- Generator: Fusion 360, Shaper Origin Export Add-In, Version 1.6.10  -->
<svg xmlns="http://www.w3.org/2000/svg" xmlns:xlink="http://www.w3.org/1999/xlink" xmlns:shaper="http://www.shapertools.com/namespaces/shaper" shaper:fusionaddin="version:1.6.10" width="5.6cm" height="5.4612628cm" version="1.1" x="0cm" y="0cm" viewBox="0 0 5.6 5.4612628" enable-background="new 0 0 5.6 5.4612628" xml:space="preserve"><path d="M0.9734385,2.2929922 L-0.352801,2.2929922 -0.504107,2.8140184 A0.05,0.05 16.1932992 0,1 -0.5678041,2.847552 A2.8,2.8 108.2772416 1,1 1.1884416,2.847552 A0.05,0.05 71.7227584 0,1 1.1247445,2.8140184 L0.9734385,2.2929922z" transform="matrix(1,0,0,-1,2.4896812,2.8500745)" fill="rgb(0,0,0)" stroke-linecap="round" stroke-linejoin="round" /><path d="M0.1653188,0.1888116 a0.145,0.145 0 1,1 0.29,0 a0.145,0.145 0 1,1 -0.29,0z" transform="matrix(1,0,0,-1,2.4896812,2.8500745)" fill="rgb(255,255,255)" stroke="rgb(0,0,0)" stroke-width="0.0010cm" stroke-linecap="round" stroke-linejoin="round" /><path d="M-1.3397888,0.1888137 a0.4,0.4 0 1,1 0.8,0 a0.4,0.4 0 1,1 -0.8,0z" transform="matrix(1,0,0,-1,2.4896812,2.8500745)" fill="rgb(255,255,255)" stroke="rgb(0,0,0)" stroke-width="0.0010cm" stroke-linecap="round" stroke-linejoin="round" /><path d="M1.1604263,0.1888096 a0.4,0.4 0 1,1 0.8,0 a0.4,0.4 0 1,1 -0.8,0z" transform="matrix(1,0,0,-1,2.4896812,2.8500745)" fill="rgb(255,255,255)" stroke="rgb(0,0,0)" stroke-width="0.0010cm" stroke-linecap="round" stroke-linejoin="round" /></svg>