<?xml version="1.0" encoding="utf-8"?>
<!-- Generator: Fusion 360, Shaper Origin Export Add-In, Version 1.6.10  -->
<svg xmlns="http://www.w3.org/2000/svg" xmlns:xlink="http://www.w3.org/1999/xlink" xmlns:shaper="http://www.shapertools.com/namespaces/shaper" shaper:fusionaddin="version:1.6.10" width="4.3cm" height="1.4452177cm" version="1.1" x="0cm" y="0cm" viewBox="0 0 4.3 1.4452177" enable-background="new 0 0 4.3 1.4452177" xml:space="preserve"><path d="M0.9215728,0.3549971 A1.9820589,1.9820589 297.7074614 0,0 -0.9215728,0.3549971 A5.3424512,5.3424512 99.9332063 0,1 -2.15,-0.0166336 L-2.15,-0.9902206 A0.1,0.1 180 0,1 -2.05,-1.0902206 L-1.9920411,-1.0902206 -1.9920411,-0.4902206 A0.1,0.1 180 0,0 -1.8920411,-0.3902206 L-1.6920411,-0.3902206 A0.1,0.1 90 0,0 -1.5920411,-0.4902206 L-1.5920411,-0.9902206 A0.1,0.1 180 0,1 -1.4920411,-1.0902206 L1.4920411,-1.0902206 A0.1,0.1 270 0,1 1.5920411,-0.9902206 L1.5920411,-0.4902206 A0.1,0.1 180 0,0 1.6920411,-0.3902206 L1.8920411,-0.3902206 A0.1,0.1 90 0,0 1.9920411,-0.4902206 L1.9920411,-1.0902206 2.05,-1.0902206 A0.1,0.1 270 0,1 2.15,-0.9902206 L2.15,-0.0166336 A5.3424512,5.3424512 66.2693845 0,1 0.9215728,0.3549971z" transform="matrix(1,0,0,-1,2.15,0.3549971)" fill="rgb(0,0,0)" stroke-linecap="round" stroke-linejoin="round" /><path d="M-0.2625,-0.3902206 a0.2625,0.2625 0 1,1 0.525,0 a0.2625,0.2625 0 1,1 -0.525,0z" transform="matrix(1,0,0,-1,2.15,0.3549971)" fill="rgb(255,255,255)" stroke="rgb(0,0,0)" stroke-width="0.0010cm" stroke-linecap="round" stroke-linejoin="round" /></svg>