<?xml version="1.0" encoding="utf-8"?>
<!-- Generator: Fusion 360, Shaper Origin Export Add-In, Version 1.6.10  -->
<svg xmlns="http://www.w3.org/2000/svg" xmlns:xlink="http://www.w3.org/1999/xlink" xmlns:shaper="http://www.shapertools.com/namespaces/shaper" shaper:fusionaddin="version:1.6.10" width="4.3cm" height="1.5253036cm" version="1.1" x="0cm" y="0cm" viewBox="0 0 4.3 1.5253036" enable-background="new 0 0 4.3 1.5253036" xml:space="preserve"><path d="M-2.15,-0.0642162 A5.3424512,5.3424512 246.2693845 0,1 2.15,-0.0642162 L2.15,0.9093708 A0.1,0.1 0 0,1 2.05,1.0093708 L1.9920411,1.0093708 1.9920411,0.4093708 A0.1,0.1 0 0,0 1.8920411,0.3093708 L1.6920411,0.3093708 A0.1,0.1 270 0,0 1.5920411,0.4093708 L1.5920411,0.9093708 A0.1,0.1 0 0,1 1.4920411,1.0093708 L-1.4920411,1.0093708 A0.1,0.1 90 0,1 -1.5920411,0.9093708 L-1.5920411,0.4093708 A0.1,0.1 0 0,0 -1.6920411,0.3093708 L-1.8920411,0.3093708 A0.1,0.1 270 0,0 -1.9920411,0.4093708 L-1.9920411,1.0093708 -2.05,1.0093708 A0.1,0.1 90 0,1 -2.15,0.9093708 L-2.15,-0.0642162z" transform="matrix(1,0,0,-1,2.15,1.0093708)" fill="rgb(0,0,0)" stroke-linecap="round" stroke-linejoin="round" /><path d="M-0.2625,0.3093708 a0.2625,0.2625 0 1,1 0.525,0 a0.2625,0.2625 0 1,1 -0.525,0z" transform="matrix(1,0,0,-1,2.15,1.0093708)" fill="rgb(255,255,255)" stroke="rgb(0,0,0)" stroke-width="0.0010cm" stroke-linecap="round" stroke-linejoin="round" /></svg>