<?xml version="1.0" encoding="utf-8"?>
<!-- Generator: Fusion 360, Shaper Origin Export Add-In, Version 1.6.10  -->
<svg xmlns="http://www.w3.org/2000/svg" xmlns:xlink="http://www.w3.org/1999/xlink" xmlns:shaper="http://www.shapertools.com/namespaces/shaper" shaper:fusionaddin="version:1.6.10" width="5.35cm" height="4.3cm" version="1.1" x="0cm" y="0cm" viewBox="0 0 5.35 4.3" enable-background="new 0 0 5.35 4.3" xml:space="preserve"><path d="M1.6,1.4920411 A0.1,0.1 0 0,1 1.5,1.5920411 L1,1.5920411 A0.1,0.1 270 0,0 0.9,1.6920411 L0.9,1.8920411 A0.1,0.1 180 0,0 1,1.9920411 L1.6,1.9920411 1.6,2.05 A0.1,0.1 0 0,1 1.5,2.15 L-1.6,2.15 A2.15,2.15 90 0,1 -1.6,-2.15 L1.5,-2.15 A0.1,0.1 270 0,1 1.6,-2.05 L1.6,-1.9920411 1,-1.9920411 A0.1,0.1 270 0,0 0.9,-1.8920411 L0.9,-1.6920411 A0.1,0.1 180 0,0 1,-1.5920411 L1.5,-1.5920411 A0.1,0.1 270 0,1 1.6,-1.4920411 L1.6,1.4920411z" transform="matrix(1,0,0,-1,3.75,2.15)" fill="rgb(0,0,0)" stroke-linecap="round" stroke-linejoin="round" /><path d="M-1.75,1.25 a0.15,0.15 0 1,1 0.3,0 a0.15,0.15 0 1,1 -0.3,0z" transform="matrix(1,0,0,-1,3.75,2.15)" fill="rgb(255,255,255)" stroke="rgb(0,0,0)" stroke-width="0.0010cm" stroke-linecap="round" stroke-linejoin="round" /><path d="M-1.75,-1.25 a0.15,0.15 0 1,1 0.3,0 a0.15,0.15 0 1,1 -0.3,0z" transform="matrix(1,0,0,-1,3.75,2.15)" fill="rgb(255,255,255)" stroke="rgb(0,0,0)" stroke-width="0.0010cm" stroke-linecap="round" stroke-linejoin="round" /><path d="M-2.3,0 a0.7,0.7 0 1,1 1.4,0 a0.7,0.7 0 1,1 -1.4,0z" transform="matrix(1,0,0,-1,3.75,2.15)" fill="rgb(255,255,255)" stroke="rgb(0,0,0)" stroke-width="0.0010cm" stroke-linecap="round" stroke-linejoin="round" /><path d="M0.6225,0 a0.2775,0.2775 0 1,1 0.555,0 a0.2775,0.2775 0 1,1 -0.555,0z" transform="matrix(1,0,0,-1,3.75,2.15)" fill="rgb(255,255,255)" stroke="rgb(0,0,0)" stroke-width="0.0010cm" stroke-linecap="round" stroke-linejoin="round" /></svg>