<?xml version="1.0" encoding="utf-8"?>
<!-- Generator: Fusion 360, Shaper Origin Export Add-In, Version 1.6.10  -->
<svg xmlns="http://www.w3.org/2000/svg" xmlns:xlink="http://www.w3.org/1999/xlink" xmlns:shaper="http://www.shapertools.com/namespaces/shaper" shaper:fusionaddin="version:1.6.10" width="8.7645966cm" height="1.650082cm" version="1.1" x="0cm" y="0cm" viewBox="0 0 8.7645966 1.650082" enable-background="new 0 0 8.7645966 1.650082" xml:space="preserve"><path d="M-3.5980017,-0.725041 A0.1,0.1 180 0,1 -3.4980017,-0.825041 L-1.285626,-0.825041 A0.1,0.1 270 0,1 -1.185626,-0.725041 L-1.185626,-0.425041 A0.1,0.1 180 0,0 -1.085626,-0.325041 L-0.9006017,-0.325041 A0.1,0.1 90 0,0 -0.8006017,-0.425041 L-0.8006017,-0.725041 A0.1,0.1 180 0,1 -0.7006017,-0.825041 L1.139374,-0.825041 A0.1,0.1 270 0,1 1.239374,-0.725041 L1.239374,-0.425041 A0.1,0.1 180 0,0 1.339374,-0.325041 L1.9143983,-0.325041 A0.1,0.1 90 0,0 2.0143983,-0.425041 L2.0143983,-0.825041 2.0643983,-0.825041 A0.1,0.1 270 0,1 2.1643983,-0.725041 L2.1643983,-0.1749979 A0.1,0.1 180 0,0 2.2643983,-0.0749979 L2.6643983,-0.0749979 A0.1,0.1 90 0,0 2.7643983,-0.1749979 L2.7643983,-0.725041 A0.1,0.1 180 0,1 2.8643983,-0.825041 L3.107274,-0.825041 A0.1,0.1 270 0,1 3.207274,-0.725041 L3.207274,-0.425041 A0.1,0.1 180 0,0 3.307274,-0.325041 L3.8822983,-0.325041 A0.1,0.1 90 0,0 3.9822983,-0.425041 L3.9822983,-0.725041 A0.1,0.1 180 0,1 4.0822983,-0.825041 L4.2822983,-0.825041 A0.1,0.1 270 0,1 4.3822983,-0.725041 L4.3822983,0.725041 A0.1,0.1 0 0,1 4.2822983,0.825041 L3.6072983,0.825041 A0.1,0.1 90 0,1 3.5072983,0.725041 A19.968296,19.968296 280.6630698 0,0 -3.8822983,0.725041 A0.1,0.1 0 0,1 -3.9822983,0.825041 L-4.3322983,0.825041 A0.05,0.05 90 0,1 -4.3822983,0.775041 L-4.3822983,-0.725041 A0.1,0.1 180 0,1 -4.2822983,-0.825041 L-4.0829661,-0.825041 A0.1,0.1 270 0,1 -3.9829683,-0.7243755 L-3.9849561,-0.4257066 A0.1,0.1 180.3813253 0,0 -3.8849583,-0.325041 L-3.6980017,-0.325041 A0.1,0.1 90 0,0 -3.5980017,-0.425041 L-3.5980017,-0.725041z" transform="matrix(1,0,0,-1,4.3822983,0.825041)" fill="rgb(0,0,0)" stroke-linecap="round" stroke-linejoin="round" /></svg>